<svg width="22" height="22" viewBox="0 0 22 22" fill="none" xmlns="http://www.w3.org/2000/svg">
<path d="M9.875 17.75C9.875 17.75 8.75 17.75 8.75 16.625C8.75 15.5 9.875 12.125 14.375 12.125C18.875 12.125 20 15.5 20 16.625C20 17.75 18.875 17.75 18.875 17.75H9.875ZM14.375 11C15.2701 11 16.1286 10.6444 16.7615 10.0115C17.3944 9.37855 17.75 8.52011 17.75 7.625C17.75 6.72989 17.3944 5.87145 16.7615 5.23851C16.1286 4.60558 15.2701 4.25 14.375 4.25C13.4799 4.25 12.6214 4.60558 11.9885 5.23851C11.3556 5.87145 11 6.72989 11 7.625C11 8.52011 11.3556 9.37855 11.9885 10.0115C12.6214 10.6444 13.4799 11 14.375 11ZM7.868 17.75C7.70122 17.3988 7.61805 17.0137 7.625 16.625C7.625 15.1006 8.39 13.5312 9.803 12.44C9.09773 12.2227 8.36294 12.1164 7.625 12.125C3.125 12.125 2 15.5 2 16.625C2 17.75 3.125 17.75 3.125 17.75H7.868ZM7.0625 11C7.80842 11 8.52379 10.7037 9.05124 10.1762C9.57868 9.64879 9.875 8.93342 9.875 8.1875C9.875 7.44158 9.57868 6.72621 9.05124 6.19876C8.52379 5.67132 7.80842 5.375 7.0625 5.375C6.31658 5.375 5.60121 5.67132 5.07376 6.19876C4.54632 6.72621 4.25 7.44158 4.25 8.1875C4.25 8.93342 4.54632 9.64879 5.07376 10.1762C5.60121 10.7037 6.31658 11 7.0625 11Z" fill="#D3D3D3"/>
</svg>
